<?xml version="1.0" encoding="UTF-8" standalone="no"?>
<!--
  Licensed to the Apache Software Foundation (ASF) under one
  or more contributor license agreements.  See the NOTICE file
  distributed with this work for additional information
  regarding copyright ownership.  The ASF licenses this file
  to you under the Apache License, Version 2.0 (the
  "License"); you may not use this file except in compliance
  with the License.  You may obtain a copy of the License at

   http://www.apache.org/licenses/LICENSE-2.0

  Unless required by applicable law or agreed to in writing,
  software distributed under the License is distributed on an
  "AS IS" BASIS, WITHOUT WARRANTIES OR CONDITIONS OF ANY
  KIND, either express or implied.  See the License for the
  specific language governing permissions and limitations
  under the License.
-->
<svg xmlns:dc="http://purl.org/dc/elements/1.1/" xmlns:cc="http://creativecommons.org/ns#" xmlns:rdf="http://www.w3.org/1999/02/22-rdf-syntax-ns#" xmlns:svg="http://www.w3.org/2000/svg" xmlns="http://www.w3.org/2000/svg" xmlns:xlink="http://www.w3.org/1999/xlink" xmlns:sodipodi="http://sodipodi.sourceforge.net/DTD/sodipodi-0.dtd" xmlns:inkscape="http://www.inkscape.org/namespaces/inkscape" id="Sling_Logo" viewBox="0 0 768 392" version="1.1" sodipodi:docname="sling.svg" inkscape:version="0.92.3 (2405546, 2018-03-11)">
<title>Apache Sling logo</title>
  <metadata>
    <rdf:RDF>
      <cc:Work rdf:about="">
        <dc:format>image/svg+xml</dc:format>
        <dc:type rdf:resource="http://purl.org/dc/dcmitype/StillImage"/>
      </cc:Work>
    </rdf:RDF>
  </metadata>
  <sodipodi:namedview pagecolor="#ffffff" bordercolor="#666666" borderopacity="1" objecttolerance="10" gridtolerance="10" guidetolerance="10" inkscape:pageopacity="0" inkscape:pageshadow="2" inkscape:window-width="3726" inkscape:window-height="2049" id="namedview2361" showgrid="false" inkscape:zoom="1.7028286" inkscape:cx="384" inkscape:cy="196" inkscape:window-x="114" inkscape:window-y="55" inkscape:window-maximized="1" inkscape:current-layer="Sling_Logo"/>
  <defs id="defs2288">
    <linearGradient id="linear-gradient" x1="-8576.57" y1="2068.26" x2="-8523.42" y2="2006.11" gradientTransform="matrix(-1, -0.01, -0.01, 1, -8384.13, -1821.1)" gradientUnits="userSpaceOnUse">
      <stop offset="0" stop-color="#f69923" id="stop2256"/>
      <stop offset="0.31" stop-color="#f79a23" id="stop2258"/>
      <stop offset="0.84" stop-color="#e97826" id="stop2260"/>
    </linearGradient>
    <linearGradient id="linear-gradient-2" x1="-8969.97" y1="2075.12" x2="-8590.74" y2="2075.12" gradientTransform="matrix(-1, -0.01, -0.01, 1, -8384.13, -1821.1)" gradientUnits="userSpaceOnUse">
      <stop offset="0.32" stop-color="#9e2064" id="stop2263"/>
      <stop offset="0.63" stop-color="#c92037" id="stop2265"/>
      <stop offset="0.75" stop-color="#cd2335" id="stop2267"/>
      <stop offset="1" stop-color="#e97826" id="stop2269"/>
    </linearGradient>
    <linearGradient id="linear-gradient-3" x1="-8924.2" y1="2037.09" x2="-8698.21" y2="2037.09" gradientTransform="matrix(-1, -0.01, -0.01, 1, -8384.13, -1821.1)" gradientUnits="userSpaceOnUse">
      <stop offset="0" stop-color="#282662" id="stop2272"/>
      <stop offset="0.1" stop-color="#662e8d" id="stop2274"/>
      <stop offset="0.79" stop-color="#9f2064" id="stop2276"/>
      <stop offset="0.95" stop-color="#cd2032" id="stop2278"/>
    </linearGradient>
    <linearGradient id="linear-gradient-4" x1="-8948.67" y1="2078.65" x2="-8569.44" y2="2078.65" xlink:href="#linear-gradient-2"/>
    <linearGradient id="linear-gradient-5" x1="-8921.02" y1="2073.54" x2="-8721.72" y2="2073.54" xlink:href="#linear-gradient-3"/>
    <linearGradient id="linear-gradient-6" x1="-8948.67" y1="2039.41" x2="-8569.45" y2="2039.41" xlink:href="#linear-gradient-2"/>
    <linearGradient id="linear-gradient-7" x1="-8972.2" y1="2041.35" x2="-8592.97" y2="2041.35" xlink:href="#linear-gradient-2"/>
    <linearGradient id="linear-gradient-8" x1="-8948.67" y1="2027.74" x2="-8569.45" y2="2027.74" xlink:href="#linear-gradient-2"/>
    <linearGradient id="linear-gradient-9" x1="-8948.67" y1="2029.08" x2="-8569.45" y2="2029.08" xlink:href="#linear-gradient-2"/>
    <linearGradient id="linear-gradient-10" x1="-8735.63" y1="2029.35" x2="-8692.34" y2="2029.35" xlink:href="#linear-gradient-2"/>
    <linearGradient inkscape:collect="always" xlink:href="#SVGID_1_" id="linearGradient2328" gradientUnits="userSpaceOnUse" gradientTransform="matrix(0.11181292,-0.23979187,0.23979187,0.11181292,637.44451,-1677.8347)" x1="-5167.0962" y1="697.55487" x2="-4570.1162" y2="1395.619"/>
    <linearGradient id="SVGID_1_" gradientUnits="userSpaceOnUse" x1="-5167.0962" y1="697.55487" x2="-4570.1162" y2="1395.619" gradientTransform="matrix(0.11181292,-0.23979187,0.23979187,0.11181292,637.44451,-1677.8347)">
      <stop offset="0" style="stop-color:#F69923" id="stop2"/>
      <stop offset="0.3123" style="stop-color:#F79A23" id="stop4"/>
      <stop offset="0.8383" style="stop-color:#E97826" id="stop6"/>
    </linearGradient>
    <linearGradient inkscape:collect="always" xlink:href="#SVGID_2_" id="linearGradient2330" gradientUnits="userSpaceOnUse" gradientTransform="matrix(0.11181292,-0.23979187,0.23979187,0.11181292,637.44451,-1677.8347)" x1="-9585.3418" y1="620.50482" x2="-5326.209" y2="620.50482"/>
    <linearGradient id="SVGID_2_" gradientUnits="userSpaceOnUse" x1="-9585.3418" y1="620.50482" x2="-5326.209" y2="620.50482" gradientTransform="matrix(0.11181292,-0.23979187,0.23979187,0.11181292,637.44451,-1677.8347)">
      <stop offset="0.3233" style="stop-color:#9E2064" id="stop27"/>
      <stop offset="0.6302" style="stop-color:#C92037" id="stop29"/>
      <stop offset="0.7514" style="stop-color:#CD2335" id="stop31"/>
      <stop offset="1" style="stop-color:#E97826" id="stop33"/>
    </linearGradient>
    <linearGradient inkscape:collect="always" xlink:href="#SVGID_3_" id="linearGradient2332" gradientUnits="userSpaceOnUse" gradientTransform="matrix(0.11181292,-0.23979187,0.23979187,0.11181292,637.44451,-1677.8347)" x1="-9071.207" y1="1047.6898" x2="-6533.1782" y2="1047.6898"/>
    <linearGradient id="SVGID_3_" gradientUnits="userSpaceOnUse" x1="-9071.207" y1="1047.6898" x2="-6533.1782" y2="1047.6898" gradientTransform="matrix(0.11181292,-0.23979187,0.23979187,0.11181292,637.44451,-1677.8347)">
      <stop offset="0" style="stop-color:#282662" id="stop38"/>
      <stop offset="9.548390e-02" style="stop-color:#662E8D" id="stop40"/>
      <stop offset="0.7882" style="stop-color:#9F2064" id="stop42"/>
      <stop offset="0.9487" style="stop-color:#CD2032" id="stop44"/>
    </linearGradient>
    <linearGradient inkscape:collect="always" xlink:href="#SVGID_4_" id="linearGradient2334" gradientUnits="userSpaceOnUse" gradientTransform="matrix(0.11181292,-0.23979187,0.23979187,0.11181292,637.44451,-1677.8347)" x1="-9346.126" y1="580.81702" x2="-5086.9941" y2="580.81702"/>
    <linearGradient id="SVGID_4_" gradientUnits="userSpaceOnUse" x1="-9346.126" y1="580.81702" x2="-5086.9941" y2="580.81702" gradientTransform="matrix(0.11181292,-0.23979187,0.23979187,0.11181292,637.44451,-1677.8347)">
      <stop offset="0.3233" style="stop-color:#9E2064" id="stop49"/>
      <stop offset="0.6302" style="stop-color:#C92037" id="stop51"/>
      <stop offset="0.7514" style="stop-color:#CD2335" id="stop53"/>
      <stop offset="1" style="stop-color:#E97826" id="stop55"/>
    </linearGradient>
    <linearGradient inkscape:collect="always" xlink:href="#SVGID_5_" id="linearGradient2336" gradientUnits="userSpaceOnUse" gradientTransform="matrix(0.11181292,-0.23979187,0.23979187,0.11181292,637.44451,-1677.8347)" x1="-9035.5029" y1="638.4408" x2="-6797.2012" y2="638.4408"/>
    <linearGradient id="SVGID_5_" gradientUnits="userSpaceOnUse" x1="-9035.5029" y1="638.4408" x2="-6797.2012" y2="638.4408" gradientTransform="matrix(0.11181292,-0.23979187,0.23979187,0.11181292,637.44451,-1677.8347)">
      <stop offset="0" style="stop-color:#282662" id="stop60"/>
      <stop offset="9.548390e-02" style="stop-color:#662E8D" id="stop62"/>
      <stop offset="0.7882" style="stop-color:#9F2064" id="stop64"/>
      <stop offset="0.9487" style="stop-color:#CD2032" id="stop66"/>
    </linearGradient>
    <linearGradient inkscape:collect="always" xlink:href="#SVGID_6_" id="linearGradient2338" gradientUnits="userSpaceOnUse" gradientTransform="matrix(0.11181292,-0.23979187,0.23979187,0.11181292,637.44451,-1677.8347)" x1="-9346.126" y1="1021.6218" x2="-5086.9941" y2="1021.6218"/>
    <linearGradient id="SVGID_6_" gradientUnits="userSpaceOnUse" x1="-9346.126" y1="1021.6218" x2="-5086.9941" y2="1021.6218" gradientTransform="matrix(0.11181292,-0.23979187,0.23979187,0.11181292,637.44451,-1677.8347)">
      <stop offset="0.3233" style="stop-color:#9E2064" id="stop71"/>
      <stop offset="0.6302" style="stop-color:#C92037" id="stop73"/>
      <stop offset="0.7514" style="stop-color:#CD2335" id="stop75"/>
      <stop offset="1" style="stop-color:#E97826" id="stop77"/>
    </linearGradient>
    <linearGradient inkscape:collect="always" xlink:href="#SVGID_7_" id="linearGradient2340" gradientUnits="userSpaceOnUse" gradientTransform="matrix(0.11181292,-0.23979187,0.23979187,0.11181292,637.44451,-1677.8347)" x1="-9610.334" y1="999.73297" x2="-5351.2017" y2="999.73297"/>
    <linearGradient id="SVGID_7_" gradientUnits="userSpaceOnUse" x1="-9610.334" y1="999.73297" x2="-5351.2017" y2="999.73297" gradientTransform="matrix(0.11181292,-0.23979187,0.23979187,0.11181292,637.44451,-1677.8347)">
      <stop offset="0.3233" style="stop-color:#9E2064" id="stop82"/>
      <stop offset="0.6302" style="stop-color:#C92037" id="stop84"/>
      <stop offset="0.7514" style="stop-color:#CD2335" id="stop86"/>
      <stop offset="1" style="stop-color:#E97826" id="stop88"/>
    </linearGradient>
    <linearGradient inkscape:collect="always" xlink:href="#SVGID_8_" id="linearGradient2342" gradientUnits="userSpaceOnUse" gradientTransform="matrix(0.11181292,-0.23979187,0.23979187,0.11181292,637.44451,-1677.8347)" x1="-9346.126" y1="1152.7261" x2="-5086.9941" y2="1152.7261"/>
    <linearGradient id="SVGID_8_" gradientUnits="userSpaceOnUse" x1="-9346.126" y1="1152.7261" x2="-5086.9941" y2="1152.7261" gradientTransform="matrix(0.11181292,-0.23979187,0.23979187,0.11181292,637.44451,-1677.8347)">
      <stop offset="0.3233" style="stop-color:#9E2064" id="stop97"/>
      <stop offset="0.6302" style="stop-color:#C92037" id="stop99"/>
      <stop offset="0.7514" style="stop-color:#CD2335" id="stop101"/>
      <stop offset="1" style="stop-color:#E97826" id="stop103"/>
    </linearGradient>
    <linearGradient inkscape:collect="always" xlink:href="#SVGID_9_" id="linearGradient2344" gradientUnits="userSpaceOnUse" gradientTransform="matrix(0.11181292,-0.23979187,0.23979187,0.11181292,637.44451,-1677.8347)" x1="-9346.126" y1="1137.7247" x2="-5086.9941" y2="1137.7247"/>
    <linearGradient id="SVGID_9_" gradientUnits="userSpaceOnUse" x1="-9346.126" y1="1137.7247" x2="-5086.9941" y2="1137.7247" gradientTransform="matrix(0.11181292,-0.23979187,0.23979187,0.11181292,637.44451,-1677.8347)">
      <stop offset="0.3233" style="stop-color:#9E2064" id="stop112"/>
      <stop offset="0.6302" style="stop-color:#C92037" id="stop114"/>
      <stop offset="0.7514" style="stop-color:#CD2335" id="stop116"/>
      <stop offset="1" style="stop-color:#E97826" id="stop118"/>
    </linearGradient>
    <linearGradient inkscape:collect="always" xlink:href="#SVGID_10_" id="linearGradient2346" gradientUnits="userSpaceOnUse" gradientTransform="matrix(0.11181292,-0.23979187,0.23979187,0.11181292,637.44451,-1677.8347)" x1="-6953.4072" y1="1134.7161" x2="-6011.9995" y2="1134.7161"/>
    <linearGradient id="SVGID_10_" gradientUnits="userSpaceOnUse" x1="-6953.4072" y1="1134.7161" x2="-6011.9995" y2="1134.7161" gradientTransform="matrix(0.11181292,-0.23979187,0.23979187,0.11181292,637.44451,-1677.8347)">
      <stop offset="0.3233" style="stop-color:#9E2064" id="stop127"/>
      <stop offset="0.6302" style="stop-color:#C92037" id="stop129"/>
      <stop offset="0.7514" style="stop-color:#CD2335" id="stop131"/>
      <stop offset="1" style="stop-color:#E97826" id="stop133"/>
    </linearGradient>
  </defs>
  <title id="title2290">Logo - Close Crop</title>
  <path d="M223.41,235.88V63l-36.64-.32V251.7q0,33.89,24.93,33.89c13.7,0,18.88-5.26,24.53-15.93C224.68,266.15,223.41,254.84,223.41,235.88Z" style="fill:#00678c" id="path2292"/>
  <polygon points="260.96 158.86 275.98 158.86 275.98 283.36 311.94 283.36 311.94 129.39 260.96 129.39 260.96 158.86" style="fill:#00678c" id="polygon2294"/>
  <path d="M294.3,69.73a19.91,19.91,0,0,0-14.58,6.09,21,21,0,0,0,0,29.47,20.43,20.43,0,0,0,28.89.26l.26-.26a21,21,0,0,0,0-29.47A19.91,19.91,0,0,0,294.3,69.73Z" style="fill:#00678c" id="path2296"/>
  <path d="M431.14,125.93q-28.59,0-43.25,17V128.75H355.27V281.09h35.84V171a39,39,0,0,1,14.14-11,38.47,38.47,0,0,1,16.89-4.42q17.08,0,24.65,9T454.31,193v88h35.84V187.66q0-29.15-15.93-45.44T431.14,125.93Z" style="fill:#00678c" id="path2298"/>
  <path d="M154.85,385l-2.77-.73-.18,0-1.25-.34c-21.81-5.87-37-11.75-45.1-17.46a33.85,33.85,0,0,1-7-6.59h-67V311.43A170.49,170.49,0,0,1,.15,298.89V392H185.77c-4.64-.92-9.31-1.89-14-2.92C165.58,387.68,160,386.35,154.85,385Z" style="fill:#00678c" id="path2300"/>
  <path d="M600.39,249.82a39.59,39.59,0,0,0,31.86-13.62c7.49-9,11.47-25.25,11.47-39.83a45,45,0,0,0-12.39-31.86,40.7,40.7,0,0,0-30.94-13.18,43,43,0,0,0-32.74,13.18,44.64,44.64,0,0,0-12.39,32c0,14.06,4.22,30.19,12.19,39.43A41.62,41.62,0,0,0,600.39,249.82Z" style="fill:none" id="path2350"/>
  <rect width="768" height="392" style="fill:none" id="rect2352"/>
  <g id="g13093" transform="matrix(-0.18916538,-0.33507163,0.28137021,-0.15884813,313.03332,375.1761)" inkscape:export-xdpi="19.059999" inkscape:export-ydpi="19.059999" inkscape:transform-center-x="-545.70321" inkscape:transform-center-y="-148.40772">
    <path id="path9" d="m 281.33896,-450.32721 c -17.54188,10.34521 -46.6725,39.66105 -81.46521,82.12667 l 31.96167,60.325 c 22.43666,-32.09396 45.21729,-60.96 68.20958,-85.61917 1.77271,-1.95791 2.69875,-2.88395 2.69875,-2.88395 -0.89958,0.9525 -1.79917,1.93145 -2.69875,2.88395 -7.43479,8.20209 -30.00375,34.52813 -64.05563,86.80979 32.78188,-1.64041 83.15855,-8.33437 124.24834,-15.37229 12.22375,-68.47416 -11.98563,-99.82729 -11.98563,-99.82729 0,0 -30.77104,-49.79458 -66.91312,-28.44271 z" style="fill:url(#linearGradient2328);stroke-width:0.26458332" inkscape:connector-curvature="0"/>
    <path id="path11" d="m 227.23167,-106.21014 c 0.23812,-0.0529 0.47625,-0.0794 0.71437,-0.13229 l -4.60375,0.50271 c -0.29104,0.13229 -0.52917,0.26458 -0.82021,0.37042 1.5875,-0.23813 3.14854,-0.50271 4.70959,-0.74084 z" style="fill:none;stroke-width:0.26458332" inkscape:connector-curvature="0"/>
    <path id="path13" d="m 194.60854,1.8457021 c -2.61937,0.58208 -5.29167,1.03187 -7.99042,1.42875 2.69875,-0.39688 5.37105,-0.87313 7.99042,-1.42875 z" style="fill:none;stroke-width:0.26458332" inkscape:connector-curvature="0"/>
    <path id="path15" d="m -27.11229,244.23049 c 0.34396,-0.89958 0.68791,-1.79917 1.00541,-2.69875 7.03792,-18.57375 13.99646,-36.61833 20.9020895,-54.21313 C 2.5474995,167.5807 10.19396,148.47778 17.76104,129.95695 25.725,110.4307 33.58312,91.565912 41.33542,73.336112 c 8.1227,-19.12937 16.13958,-37.54437 23.9977,-55.27145 6.40292,-14.4197999 12.7,-28.3898 18.91771,-41.91 2.06375,-4.49792 4.1275,-8.96938 6.19125,-13.38792 4.07459,-8.75771 8.12271,-17.35667 12.09146,-25.74396 3.67771,-7.75229 7.32896,-15.31937 10.95375,-22.75417 1.19063,-2.48708 2.40771,-4.92125 3.59833,-7.38187 0.18521,-0.39688 0.39688,-0.79375 0.58209,-1.19063 l -3.91584,0.42334 -3.12208,-6.138342 c -0.29104,0.608552 -0.60854,1.190632 -0.92604,1.799172 -5.60917,11.13896 -11.16542,22.38375 -16.66875,33.73438 -3.175,6.56166 -6.35,13.14979 -9.49854,19.76437 -8.73125,18.33563 -17.33021,36.8300001 -25.77042,55.45667 -8.54604,18.81187 -16.90687,37.72958 -25.10896,56.67375 -8.06979,18.60021 -15.95437,37.226868 -23.7066605,55.800618 -7.72584,18.54729 -15.26646,37.04167 -22.6483395,55.40375 -7.69937,19.18229 -15.18708,38.17938 -22.43666,56.96479 -1.64042,4.23334 -3.28084,8.46667 -4.89479,12.7 -5.82084,15.16063 -11.48292,30.10959 -17.01271,44.87334 l 4.92125,9.71021 4.39208,-0.47625 c 0.15875,-0.4498 0.3175,-0.89959 0.47625,-1.32292 7.11729,-19.44688 14.15521,-38.39104 21.14021,-56.8325 z" style="fill:none;stroke-width:0.26458332" inkscape:connector-curvature="0"/>
    <path id="path17" d="m 184.58083,3.5919521 v 0 c 0.0265,0 0.0265,-0.0265 0.0529,-0.0265 0,0 -0.0265,0 -0.0529,0.0265 z" style="fill:none;stroke-width:0.26458332" inkscape:connector-curvature="0"/>
    <path id="path19" d="m 173.9975,56.270492 c -4.07458,0.74083 -8.28146,1.45521 -12.59417,2.19604 -0.0265,0 -0.0529,0.0265 -0.0794,0.0265 2.16958,-0.3175 4.31271,-0.635 6.42937,-1.00542 2.11667,-0.37041 4.18042,-0.76729 6.24417,-1.21708 z" style="fill:#be202e;stroke-width:0.26458332" inkscape:connector-curvature="0"/>
    <path id="path21" d="m 173.9975,56.270492 c -4.07458,0.74083 -8.28146,1.45521 -12.59417,2.19604 -0.0265,0 -0.0529,0.0265 -0.0794,0.0265 2.16958,-0.3175 4.31271,-0.635 6.42937,-1.00542 2.11667,-0.37041 4.18042,-0.76729 6.24417,-1.21708 z" style="opacity:0.35;fill:#be202e;stroke-width:0.26458332" inkscape:connector-curvature="0"/>
    <path id="path23" d="m 184.68667,3.5390321 c 0,0 -0.0265,0 -0.0265,0.0265 -0.0265,0 -0.0265,0.0265 -0.0529,0.0265 0.68792,-0.0794 1.34938,-0.21167 2.01083,-0.29104 2.72521,-0.39688 5.3975,-0.87313 7.99042,-1.42875 -3.25437,0.52916 -6.56167,1.11125 -9.92187,1.66687 z" style="fill:#be202e;stroke-width:0.26458332" inkscape:connector-curvature="0"/>
    <path id="path25" d="m 184.68667,3.5390321 c 0,0 -0.0265,0 -0.0265,0.0265 -0.0265,0 -0.0265,0.0265 -0.0529,0.0265 0.68792,-0.0794 1.34938,-0.21167 2.01083,-0.29104 2.72521,-0.39688 5.3975,-0.87313 7.99042,-1.42875 -3.25437,0.52916 -6.56167,1.11125 -9.92187,1.66687 z" style="opacity:0.35;fill:#be202e;stroke-width:0.26458332" inkscape:connector-curvature="0"/>
    <path id="path36" d="m 137.61729,-152.00951 c 9.71021,-18.15042 19.55271,-35.90396 29.50104,-53.18124 10.31875,-17.93875 20.76979,-35.34833 31.32667,-52.12292 0.60854,-0.97896 1.24354,-1.98437 1.85208,-2.98979 10.42459,-16.51 20.955,-32.385 31.56479,-47.57208 l -31.96166,-60.325 c -2.40771,2.93688 -4.81542,5.92667 -7.27604,8.96938 -9.2075,11.48291 -18.78542,23.83895 -28.60146,36.93583 -11.05959,14.76375 -22.43667,30.53291 -33.99896,47.06937 -10.66271,15.29292 -21.48417,31.30021 -32.30562,47.86313 -9.2075,14.10229 -18.46792,28.62791 -27.64896,43.52394 -0.34396,0.55563 -0.68792,1.11125 -1.03188,1.66688 l 41.5925,82.15312 c 8.89,-17.59479 17.88583,-34.95145 26.9875,-51.99062 z" style="fill:url(#linearGradient2330);stroke-width:0.26458332" inkscape:connector-curvature="0"/>
    <path id="path47" d="m -51.82438,310.87903 c -5.50333,15.13417 -11.03312,30.53292 -16.58937,46.27563 -0.0794,0.23812 -0.15875,0.44979 -0.23812,0.68791 -0.79376,2.2225 -1.56105,4.445 -2.3548,6.6675 -3.73062,10.60979 -6.985,20.16125 -14.41979,41.88354 12.25021,5.58271 22.09271,20.29355 31.40604,36.98875 -0.97896,-17.27729 -8.14916,-33.5227 -21.72229,-46.09041 60.40438,2.72521 112.44792,-12.54125 139.35604,-56.70021 2.40771,-3.94229 4.60375,-8.06979 6.58813,-12.48833 -12.22375,15.50458 -27.38438,22.0927 -55.93292,20.47875 -0.0529,0.0265 -0.13229,0.0529 -0.18521,0.0794 0.0529,-0.0265 0.13229,-0.0529 0.18521,-0.0794 42.01583,-18.81188 63.10313,-36.85646 81.72979,-66.78084 4.41854,-7.09083 8.70479,-14.84312 13.09688,-23.44208 -36.75063,37.72958 -79.32209,48.47167 -124.16896,40.3225 l -33.62854,3.67771 c -1.05834,2.83104 -2.09021,5.66208 -3.12209,8.51958 z" style="fill:url(#linearGradient2332);stroke-width:0.26458332" inkscape:connector-curvature="0"/>
    <path id="path58" d="m -36.13458,235.55216 c 7.27604,-18.78542 14.76375,-37.7825 22.43666,-56.9648 7.3554195,-18.36208 14.9224995,-36.83 22.6483395,-55.40375 C 16.67625,104.60986 24.58729,86.009662 32.65708,67.382992 c 8.20209,-18.94417 16.58938,-37.86188 25.10896,-56.67375 8.44021,-18.6002099 17.03917,-37.12104 25.77042,-55.45667 3.14854,-6.61458 6.32354,-13.20271 9.49854,-19.76437 5.50333,-11.35063 11.05958,-22.59542 16.66875,-33.73438 0.29104,-0.60854 0.60854,-1.19062 0.92604,-1.799162 l -41.5925,-82.15313 c -0.68792,1.11125 -1.34937,2.2225 -2.03729,3.33375 -9.68375,15.82208 -19.34104,32.01458 -28.81313,48.55104 -9.57791,16.69521 -18.97062,33.707922 -28.15166,50.958752 -7.7522905,14.55209 -15.3193805,29.23646 -22.67479,44.05313 -1.48167,3.01625 -2.93688,5.97958 -4.39209,8.96937 -9.07521,18.6531301 -17.25083,36.67125 -24.65916,54.00146 -8.3873,19.63208 -15.76917,38.39104 -22.225,56.17104 -4.2598,11.69459 -8.12271,22.992288 -11.66813,33.840208 -2.91042,9.26042 -5.68854,18.54729 -8.30792,27.78125 -6.2177,21.77521 -11.562287,43.4975 -15.95437,65.14042 l 41.80417,82.52354 c 5.52979,-14.76375 11.19187,-29.71271 17.0127,-44.87333 1.61396,-4.20688 3.25438,-8.46667 4.8948,-12.7 z" style="fill:url(#linearGradient2334);stroke-width:0.26458332" inkscape:connector-curvature="0"/>
    <path id="path69" d="m -100.40188,213.53882 c -5.23875,26.40542 -8.96937,52.705 -10.84791,78.84584 -0.0529,0.92604 -0.15875,1.82562 -0.21167,2.75166 -13.04396,-20.90208 -47.96896,-41.30146 -47.88958,-41.11625 25.00312,36.24792 43.97375,72.23125 46.80479,107.55313 -13.38792,2.75166 -31.72354,-1.21709 -52.91667,-9.02229 22.09271,20.29354 38.68209,25.9027 45.13792,27.41083 -20.29354,1.27 -41.43375,15.21354 -62.73271,31.27375 31.14146,-12.7 56.30333,-17.72708 74.32146,-13.6525 -28.575,80.90958 -57.22938,170.23292 -85.88375,265.05962 8.78417,-2.593 14.02292,-8.4932 16.95979,-16.4836 5.10646,-17.1714 38.99958,-129.83102 92.10146,-277.91831 1.50812,-4.20688 3.04271,-8.44021 4.57729,-12.7 0.42334,-1.19063 0.87313,-2.38125 1.29646,-3.54542 5.60917,-15.53104 11.43,-31.37958 17.43604,-47.54562 1.37583,-3.67771 2.75167,-7.35542 4.1275,-11.05959 0.0265,-0.0794 0.0529,-0.15875 0.0794,-0.21166 l -41.751273,-82.49709 c -0.185207,0.92604 -0.423337,1.87854 -0.608547,2.8575 z" style="fill:url(#linearGradient2336);stroke-width:0.26458332" inkscape:connector-curvature="0"/>
    <path id="path80" d="m 117.08562,-93.086798 c -1.19062,2.43416 -2.38125,4.89479 -3.59833,7.38187 -3.59833,7.43479 -7.24958,15.00188 -10.95375,22.75417 -3.99521,8.38729 -8.01687,16.95979 -12.09146,25.74396 -2.06375,4.41854 -4.10104,8.86354 -6.19125,13.38791 -6.21771,13.52021 -12.51479,27.4902101 -18.91771,41.91 -7.85812,17.72709 -15.875,36.14209 -23.9977,55.27146 -7.7523,18.22979 -15.61042,37.094588 -23.57438,56.620838 -7.56708,18.52083 -15.2135405,37.6502 -22.9658305,57.36166 -6.9056295,17.59479 -13.8641695,35.63938 -20.9020895,54.21313 -0.34395,0.89958 -0.68791,1.79916 -1.00541,2.69875 -6.985,18.44146 -14.02292,37.38562 -21.11375,56.80604 -0.15875,0.44979 -0.3175,0.89958 -0.47625,1.32292 l 33.62854,-3.67771 c -0.66146,-0.13229 -1.34938,-0.21167 -2.01083,-0.34396 40.21666,-5.00063 93.6625,-35.05729 128.21708,-72.15188 15.92792,-17.09208 30.37417,-37.25333 43.73562,-60.85416 9.94834,-17.56834 19.28813,-37.04167 28.17813,-58.60521 7.77875,-18.838328 15.24,-39.237708 22.43667,-61.356878 -9.23396,4.86834 -19.8173,8.44021 -31.48542,10.9273 -2.03729,0.42333 -4.1275,0.84666 -6.24417,1.21708 -2.11666,0.37042 -4.25979,0.71437 -6.42937,1.00542 v 0 0 c 0.0265,0 0.0529,-0.0265 0.0794,-0.0265 37.49146,-14.41979 61.14521,-42.28042 78.34313,-76.38521 -9.86896,6.72042 -25.90271,15.5310401 -45.11146,19.7643701 -2.61938,0.58209 -5.29167,1.03188 -7.99042,1.42875 -0.68791,0.10584 -1.34937,0.21167 -2.01083,0.29105 v 0 0 c 0.0265,0 0.0265,-0.0265 0.0529,-0.0265 0,0 0.0265,0 0.0265,-0.0265 v 0 c 13.0175,-5.45042 23.99771,-11.53583 33.52271,-18.7325001 2.03729,-1.53458 4.02167,-3.12208 5.92667,-4.78896 2.91042,-2.51354 5.66208,-5.15937 8.30792,-7.9375 1.69333,-1.77271 3.33375,-3.59833 4.92125,-5.50333 3.73062,-4.445 7.22312,-9.23396 10.50395,-14.44625 1.00542,-1.5875 1.98438,-3.20146 2.96334,-4.86834 1.24354,-2.4077 2.43416,-4.7625 3.59833,-7.09083 5.23875,-10.53042 9.41917,-19.92312 12.75292,-28.17812 1.66687,-4.1275 3.12208,-7.9375 4.36562,-11.48292 0.50271,-1.402292 0.97896,-2.778132 1.42875,-4.101042 1.32292,-3.96875 2.40771,-7.48771 3.25438,-10.58334 1.27,-4.6302 2.03729,-8.30791 2.46062,-10.9802 v 0 0 c -1.27,1.00541 -2.72521,2.01083 -4.36562,2.98979 -11.32417,6.77333 -30.74459,12.91166 -46.40792,15.79562 l 30.87688,-3.38666 -30.87688,3.38666 c -0.23812,0.0529 -0.47625,0.0794 -0.71437,0.13229 -1.56105,0.26459 -3.14855,0.50271 -4.73605,0.7673 0.29105,-0.1323 0.52917,-0.26459 0.82021,-0.37042 l -105.64812,11.588752 c -0.18521,0.37042 -0.37042,0.74083 -0.58209,1.13771 z" style="fill:url(#linearGradient2338);stroke-width:0.26458332" inkscape:connector-curvature="0"/>
    <path id="path91" d="m 236.01583,-306.65846 c -9.39271,14.41979 -19.65854,30.7975 -30.69166,49.34479 -0.58209,0.9525 -1.16417,1.95792 -1.74625,2.93688 -9.525,16.06021 -19.65855,33.68146 -30.2948,52.99604 -9.2075,16.66874 -18.78541,34.55457 -28.73375,53.78978 -8.67833,16.74813 -17.6477,34.52813 -26.8552,53.340002 l 105.64812,-11.588752 c 30.77104,-14.15521 44.52938,-26.96104 57.89083,-45.48187 3.54542,-5.10646 7.1173,-10.45105 10.66271,-15.98084 10.84792,-16.93333 21.48417,-35.58645 31.00917,-54.13374 9.18104,-17.91229 17.27729,-35.66583 23.495,-51.67312 3.94229,-10.18646 7.11729,-19.65854 9.31333,-27.96646 1.93146,-7.32896 3.43959,-14.2875 4.60375,-20.92854 -41.14271,7.01146 -91.51937,13.73187 -124.30125,15.34583 z" style="fill:url(#linearGradient2340);stroke-width:0.26458332" inkscape:connector-curvature="0"/>
    <path id="path93" d="m 167.75333,57.487572 c -2.11666,0.37042 -4.25979,0.71438 -6.42937,1.00542 v 0 c 2.16958,-0.29104 4.31271,-0.635 6.42937,-1.00542 z" style="fill:#be202e;stroke-width:0.26458332" inkscape:connector-curvature="0"/>
    <path id="path95" d="m 167.75333,57.487572 c -2.11666,0.37042 -4.25979,0.71438 -6.42937,1.00542 v 0 c 2.16958,-0.29104 4.31271,-0.635 6.42937,-1.00542 z" style="opacity:0.35;fill:#be202e;stroke-width:0.26458332" inkscape:connector-curvature="0"/>
    <path id="path106" d="m 167.75333,57.487572 c -2.11666,0.37042 -4.25979,0.71438 -6.42937,1.00542 v 0 c 2.16958,-0.29104 4.31271,-0.635 6.42937,-1.00542 z" style="fill:url(#linearGradient2342);stroke-width:0.26458332" inkscape:connector-curvature="0"/>
    <path id="path108" d="m 184.58083,3.5919521 c 0.68792,-0.0794 1.34938,-0.21167 2.01084,-0.29104 -0.66146,0.0794 -1.32292,0.1852 -2.01084,0.29104 z" style="fill:#be202e;stroke-width:0.26458332" inkscape:connector-curvature="0"/>
    <path id="path110" d="m 184.58083,3.5919521 c 0.68792,-0.0794 1.34938,-0.21167 2.01084,-0.29104 -0.66146,0.0794 -1.32292,0.1852 -2.01084,0.29104 z" style="opacity:0.35;fill:#be202e;stroke-width:0.26458332" inkscape:connector-curvature="0"/>
    <path id="path121" d="m 184.58083,3.5919521 c 0.68792,-0.0794 1.34938,-0.21167 2.01084,-0.29104 -0.66146,0.0794 -1.32292,0.1852 -2.01084,0.29104 z" style="fill:url(#linearGradient2344);stroke-width:0.26458332" inkscape:connector-curvature="0"/>
    <path id="path123" d="m 184.66021,3.5654921 c 0,0 0.0265,0 0.0265,-0.0265 v 0 0 0 c 0,0 -0.0265,0 -0.0265,0.0265 z" style="fill:#be202e;stroke-width:0.26458332" inkscape:connector-curvature="0"/>
    <path id="path125" d="m 184.66021,3.5654921 c 0,0 0.0265,0 0.0265,-0.0265 v 0 0 0 c 0,0 -0.0265,0 -0.0265,0.0265 z" style="opacity:0.35;fill:#be202e;stroke-width:0.26458332" inkscape:connector-curvature="0"/>
    <path id="path136" d="m 184.66021,3.5654921 c 0,0 0.0265,0 0.0265,-0.0265 v 0 0 0 c 0,0 -0.0265,0 -0.0265,0.0265 z" style="fill:url(#linearGradient2346);stroke-width:0.26458332" inkscape:connector-curvature="0"/>
  </g>
  <path d="M623.13,292.79c-5.77.68-11.51,1.59-17.24,2.47-12.74,2-25.45,4.54-38.23,6.25-4,.52-9.24,1.08-11.95-2.59-3.78-5.54,5.93-11.71,9.28-14.18,4-2.95,12.31-6.61,12.82-7.13a67.43,67.43,0,0,1,7.33.52,95.86,95.86,0,0,0,52.41-8.32,79.66,79.66,0,0,0,18-11.95A61.61,61.61,0,0,0,668.77,241a92.09,92.09,0,0,0,7.37-23.58,112.68,112.68,0,0,0,1.63-25.85,75.07,75.07,0,0,0-4.5-21.86,130.22,130.22,0,0,0-9.16-17.44l19.47-19.63V0H76.93Q43.72.68,22.29,20.47A67.42,67.42,0,0,0,.15,72.24,81.36,81.36,0,0,0,11.5,116.05q11.35,18.24,39.83,31.54l22.74,10.63q30.39,14.26,37.91,26.32a48.39,48.39,0,0,1,7.53,26.13,39.83,39.83,0,0,1-13.58,31,51.77,51.77,0,0,1-35.84,12.15,92.75,92.75,0,0,1-28.55-5.22A95.3,95.3,0,0,1,15,235.41L1,270.37a112.55,112.55,0,0,0,63.72,17.48q42.41,0,67.7-21.86a67.7,67.7,0,0,0,25.09-53.21q0-28.87-11.55-47.79t-40.22-32.18l-23.1-10.63a166.78,166.78,0,0,1-29.31-16.53A40.46,40.46,0,0,1,42.16,91a45.8,45.8,0,0,1-4-19.39A38,38,0,0,1,49.37,43.33a34.77,34.77,0,0,1,27.4-11.95H652.17v88.33l-11.71,11.95a28.32,28.32,0,0,0-5.5-2.87A96.14,96.14,0,0,0,602.15,122a93.39,93.39,0,0,0-33.29,4.38A77,77,0,0,0,542,144.21a80.93,80.93,0,0,0-15,21.7,87.14,87.14,0,0,0-6.85,26,85.11,85.11,0,0,0,1,26.68,75.39,75.39,0,0,0,8.64,22.9,78.86,78.86,0,0,0,14.34,16.29,99.57,99.57,0,0,0,10.31,8.72c-4,2.51-7.73,5.3-11.43,8-9.8,7.41-19.08,19.55-14.34,33.29s20.15,17.68,33.05,18.76a134.77,134.77,0,0,0,35.13-2.71c8.72-1.59,17.6-2.31,26.44-3.15,3.66-.36,7.25-1,11-1.08A21.11,21.11,0,0,1,651.33,326a13.32,13.32,0,0,1,1.13,2l0,.1c7.5,18.4-22.1,26.47-44.63,29.16-12.64,1.51-41,3.55-60.63,2.13-.68,13.23-6.45,24.89-15.74,32.55,15.74,0,38.51-.12,51.52-.91,11.1-.67,21.88-1,33.42-2.69,40-5.13,71.64-26.27,71.64-51C688,308.74,663.92,287.06,623.13,292.79ZM567.66,164.52a43,43,0,0,1,32.74-13.18,40.7,40.7,0,0,1,30.94,13.18,45,45,0,0,1,12.39,31.86c0,14.58-4,30.82-11.47,39.83a39.59,39.59,0,0,1-31.86,13.62A41.62,41.62,0,0,1,567.46,236c-8-9.24-12.19-25.37-12.19-39.43A44.64,44.64,0,0,1,567.66,164.52Z" style="fill:#00678c" id="path2354"/>
  <path d="M728.16,3.74H716.93V34h-4V3.74H701.66V0h26.5Z" style="fill:#6d6e71" id="path2356"/>
  <path d="M732.91,0h6l11.52,26.64h.1L762.14,0H768V34h-4V5.47h-.1L751.68,34h-2.45L737,5.47h-.09V34h-4Z" style="fill:#6d6e71" id="path2358"/>
</svg>
