<?xml version="1.0" encoding="UTF-8"?>
<svg inkscape:version="1.0.2 (e86c870879, 2021-01-15, custom)" sodipodi:docname="jackrabbit.svg" version="1.1" viewBox="0 0 85.35 23.44" xmlns="http://www.w3.org/2000/svg" xmlns:cc="http://creativecommons.org/ns#" xmlns:dc="http://purl.org/dc/elements/1.1/" xmlns:inkscape="http://www.inkscape.org/namespaces/inkscape" xmlns:rdf="http://www.w3.org/1999/02/22-rdf-syntax-ns#" xmlns:sodipodi="http://sodipodi.sourceforge.net/DTD/sodipodi-0.dtd">
 <sodipodi:namedview id="cvfa" bordercolor="#666666" borderopacity="1.0" fit-margin-bottom="0" fit-margin-left="0" fit-margin-right="0" fit-margin-top="0" inkscape:current-layer="layer1" inkscape:cx="449.90606" inkscape:cy="-3.5988264" inkscape:document-rotation="0" inkscape:document-units="mm" inkscape:pageopacity="0.0" inkscape:pageshadow="2" inkscape:window-height="1014" inkscape:window-maximized="1" inkscape:window-width="1920" inkscape:window-x="0" inkscape:window-y="36" inkscape:zoom="0.98994949" pagecolor="#ffffff" showgrid="false"/>
 <title>Apache Jackrabbit logo</title>
 <metadata>
  <rdf:RDF>
   <cc:Work rdf:about="">
    <dc:format>image/svg+xml</dc:format>
    <dc:type rdf:resource="http://purl.org/dc/dcmitype/StillImage"/>
    <dc:title/>
   </cc:Work>
  </rdf:RDF>
 </metadata>
 <g transform="translate(114 -116.7)" inkscape:groupmode="layer" inkscape:label="Layer 1">
  <path d="m-55.96 130.2c0-.0779.2015-.4648.4477-.8599l.4477-.7183-.8446.7771c-.6882.6332-.8446.6909-.8446.3115 0-.2561.7441-1.163 1.654-2.016 1.145-1.074 1.532-1.586 1.257-1.665-1.551-.4457-2.665-.6014-2.961-.4137-.1905.1208-.6212.2214-.9572.2237-.82.005-.4917.4864.6606.9679.6218.2598.8815.5242.818.8329-.05287.2569-.2889.4186-.5465.3745-.5494-.211-.5952-.1451-.4534.3307.06413.2153-.1191.4085-.2646.4085-.6719 0-3.798-4.123-3.912-5.159-.2444-2.229-.1675-3.199.3046-3.836l.4895-.6615-.1659.7276c-.1977.867-.06114.8997.8303.1984 1.119-.8802 3.054-.7241 4.912.3962 1.943 1.172 3.241 1.399 4.519.7927.5279-.2505.9598-.5418.9598-.6474 0-.2852-1.259-.8061-1.949-.8061-2.073 0-5.923-2.251-4.943-2.89.7579-.4938 3.166.3309 5.7 1.952 1.065.6815 1.762.938 2.546.938.8751 0 1.25.1705 1.979.8996 1.532 1.532.9109 2.767-1.211 2.409-.9249-.1563-1.089-.0873-1.898.7994-1.351 1.479-6.338 6.476-6.464 6.476-.06104 0-.111-.0637-.111-.1416zm9.128-9.137c0-.2042-.2084-.4113-.463-.4604-.4561-.0878-.6446.4736-.2811.8371.2773.2773.7441.041.7441-.3767z" style="stroke-width:.2646" inkscape:connector-curvature="0" sodipodi:nodetypes="scccscccccccsscccccccssccscccsssccs"/>
  <g style="fill:#839901">
   <path d="m-109.8 138.9-.5314-1.204h-2.563l-.5246 1.204h-.5717l2.112-4.708h.5583l2.105 4.708zm-2.872-1.702h2.125l-1.069-2.421z" style="fill:#839901;stroke-width:.3603px"/>
   <path d="m-106.7 135.3q.4977 0 .8811.2287.3901.2287.6053.639.2152.4036.2152.9282 0 .5179-.2152.9282-.2085.4036-.5919.6322-.3834.222-.8811.222-.4708 0-.8273-.2018-.3498-.2085-.5515-.5784v2.065h-.5246v-4.843h.5246v.76q.2018-.3699.5515-.5717.3565-.2085.8138-.2085zm-.0942 3.114q.3632 0 .6524-.1682.2892-.1749.4506-.4776.1614-.3027.1614-.686 0-.3767-.1614-.6793-.1614-.3094-.4506-.4775-.2892-.1749-.6524-.1749-.3699 0-.6591.1749-.2892.1682-.4506.4708-.1614.3027-.1614.686t.1614.686q.1614.3027.4506.4776.2892.1682.6591.1682z" style="fill:#839901;stroke-width:.3603px"/>
   <path d="m-101.8 138.9v-.5515q-.4237.5717-1.298.5717-.3565 0-.6322-.1412-.2758-.1412-.4237-.3834-.148-.2421-.148-.5448 0-.4641.3498-.7331.3498-.2758.9753-.2825h1.164v-.222q0-.3968-.2421-.6121-.2421-.222-.7062-.222-.5448 0-1.123.4103l-.222-.3699q.3767-.2489.6928-.3632.3228-.1143.7533-.1143.6524 0 1.002.3228.3565.3228.3632.8946l.007 2.341zm-1.197-.417q.4506 0 .7668-.2085.3228-.2152.4237-.5919v-.4305h-1.103q-.9013 0-.9013.5784 0 .2959.222.4775.222.1749.5919.1749z" style="fill:#839901;stroke-width:.3603px"/>
   <path d="m-97.69 136.2q-.4305-.417-1.056-.417-.3632 0-.6524.1682-.2825.1682-.4439.4708-.1614.2959-.1614.6793 0 .3901.1614.6928.1614.296.4439.4641.2892.1682.6524.1682.3498 0 .6255-.1144.2825-.1211.4708-.343l.3027.3094q-.2421.2892-.6053.4506-.3632.1614-.8138.1614-.5112 0-.908-.222-.3968-.2287-.6255-.6322-.222-.4103-.222-.9349 0-.5179.222-.9215.2287-.4103.6255-.639.4036-.2287.908-.2287.4237 0 .7668.1412.3498.1345.5986.3834z" style="fill:#839901;stroke-width:.3603px"/>
   <path d="m-94.46 135.3q.6322 0 .9887.3699.3565.3632.3565 1.009v2.179h-.5246v-2.045q0-.4708-.269-.7399-.2623-.269-.7331-.269-.5583.007-.8811.3699-.3161.3565-.3161.9484v1.735h-.5246v-4.991h.5246v2.246q.3498-.8004 1.379-.8138z" style="fill:#839901;stroke-width:.3603px"/>
   <path d="m-90.54 135.3q.8408 0 1.264.5381.4305.5314.3901 1.446h-2.892q.06726.5246.417.8408.3498.3161.8677.3161.3228 0 .6053-.1143.2825-.1211.491-.3363l.2892.3027q-.2556.2825-.6255.4372-.3632.148-.8004.148-.5179 0-.9215-.222-.3968-.2287-.6188-.6322-.222-.4103-.222-.9349 0-.5179.222-.9215.222-.4103.6188-.639.4036-.2287.9147-.2287zm1.184 1.567q-.0269-.5179-.3498-.8206-.3161-.3094-.834-.3094-.5112 0-.8475.3094-.3363.3027-.3901.8206z" style="fill:#839901;stroke-width:.3603px"/>
   <path d="m-84.81 133.3v-1.328h3.607v4.518q0 1.239-.6441 1.853-.6342.6143-1.635.6143-1.249 0-2.18-.9612l.8026-1.11q.6243.6738 1.308.6738.327 0 .5549-.2477.2378-.2576.2378-.763v-3.25z" style="fill:#839901;stroke-width:.3603px"/>
   <path d="m-75.27 138.9h-1.397v-.6441q-.5747.7233-1.427.7233-.8423 0-1.417-.4855-.5747-.4954-.5747-1.308 0-.8224.5945-1.229t1.625-.4063h1.11v-.0297q0-.8522-.9017-.8522-.3864 0-.8224.1585-.4261.1486-.7233.3765l-.6639-.9612q1.05-.763 2.398-.763.9711 0 1.585.4855t.6143 1.536zm-1.496-2.031v-.2576h-.9314q-.8918 0-.8918.5549 0 .2874.2081.4459.218.1486.6143.1486.3964 0 .6936-.2378.3072-.2477.3072-.654z" style="fill:#839901;stroke-width:.3603px"/>
   <path d="m-71.36 137.6q.7432 0 1.338-.7432l.8819.9909q-1.031 1.07-2.229 1.07t-2.031-.7531q-.8224-.763-.8224-1.982 0-1.229.8323-1.992.8423-.7729 1.992-.7729.5747 0 1.159.2378.5945.2378 1.04.7035l-.7729 1.011q-.2576-.3072-.6342-.4756-.3666-.1685-.7333-.1685-.5846 0-1.011.3864-.4162.3765-.4162 1.06 0 .6738.4162 1.05.4261.3765.9909.3765z" style="fill:#839901;stroke-width:.3603px"/>
   <path d="m-66.66 138.9h-1.486v-7.352h1.486v3.775l1.655-1.764h1.873l-2.031 2.16 2.111 3.181h-1.764l-1.358-2.041-.4855.5054z" style="fill:#839901;stroke-width:.3603px"/>
   <path d="m-59.44 134.8q-.6639 0-.9909.4756-.327.4657-.327 1.239v2.309h-1.486v-5.331h1.486v.7035q.2874-.327.7134-.5549.436-.2279.8819-.2378l.0099 1.397z" style="fill:#839901;stroke-width:.3603px"/>
   <path d="m-53.71 138.9h-1.397v-.6441q-.5747.7233-1.427.7233-.8423 0-1.417-.4855-.5747-.4954-.5747-1.308 0-.8224.5945-1.229t1.625-.4063h1.11v-.0297q0-.8522-.9017-.8522-.3864 0-.8224.1585-.4261.1486-.7233.3765l-.6639-.9612q1.05-.763 2.398-.763.9711 0 1.585.4855.6143.4855.6143 1.536zm-1.496-2.031v-.2576h-.9314q-.8918 0-.8918.5549 0 .2874.2081.4459.218.1486.6143.1486t.6936-.2378q.3072-.2477.3072-.654z" style="fill:#839901;stroke-width:.3603px"/>
   <path d="m-49.28 133.4q.9711 0 1.694.763.7233.7531.7233 1.942t-.7432 1.992q-.7432.8026-1.694.8026-.9413 0-1.566-.7828v.7035h-1.486v-7.352h1.486v2.616q.6143-.6837 1.585-.6837zm-1.605 2.765q0 .6441.3567 1.06.3666.4063.8819.4063.5153 0 .9017-.4063.3864-.4162.3864-1.06 0-.6441-.3765-1.08t-.9017-.436-.8918.436q-.3567.4261-.3567 1.08z" style="fill:#839901;stroke-width:.3603px"/>
   <path d="m-42.68 133.4q.9711 0 1.694.763.7233.7531.7233 1.942t-.7432 1.992q-.7432.8026-1.694.8026-.9413 0-1.566-.7828v.7035h-1.486v-7.352h1.486v2.616q.6143-.6837 1.585-.6837zm-1.605 2.765q0 .6441.3567 1.06.3666.4063.8819.4063t.9017-.4063q.3864-.4162.3864-1.06 0-.6441-.3765-1.08t-.9017-.436-.8918.436q-.3567.4261-.3567 1.08z" style="fill:#839901;stroke-width:.3603px"/>
   <path d="m-37.67 138.9h-1.486v-5.331h1.486zm-1.367-6.005q-.2477-.2576-.2477-.6243t.2477-.6144q.2576-.2576.6243-.2576t.6143.2576q.2576.2477.2576.6144t-.2576.6243q-.2477.2477-.6143.2477t-.6243-.2477z" style="fill:#839901;stroke-width:.3603px"/>
   <path d="m-34.48 134.6v2.388q0 .3072.1585.4855.1585.1684.3765.1684.4162 0 .7035-.3765l.5549 1.04q-.6936.6342-1.467.6342-.763 0-1.298-.5054-.5252-.5054-.5252-1.377v-2.457h-.6243v-1.07h.6243v-1.595h1.496v1.595h1.288v1.07z" style="fill:#839901;stroke-width:.3603px"/>
   <path d="m-32.62 130.7h1.533v.2594h-.6246v1.758h-.2883v-1.758h-.6198zm1.85 0h.3459l.6966 1.417.6918-1.417h.3507v2.018h-.2642v-1.614l-.687 1.403h-.1826l-.687-1.403v1.614h-.2642z" style="stroke-width:.3603px"/>
  </g>
 </g>
</svg>
